<svg id="visual" viewBox="0 0 1920 1080" width="1920" height="1080" xmlns="http://www.w3.org/2000/svg" xmlns:xlink="http://www.w3.org/1999/xlink" version="1.1"><path d="M0 66L22.8 125.3C45.7 184.7 91.3 303.3 137 357.3C182.7 411.3 228.3 400.7 274 359.3C319.7 318 365.3 246 411.2 231.5C457 217 503 260 548.8 247.3C594.7 234.7 640.3 166.3 686 135.8C731.7 105.3 777.3 112.7 823 177.5C868.7 242.3 914.3 364.7 960 391.7C1005.7 418.7 1051.3 350.3 1097 375.5C1142.7 400.7 1188.3 519.3 1234 546.3C1279.7 573.3 1325.3 508.7 1371.2 474.5C1417 440.3 1463 436.7 1508.8 406C1554.7 375.3 1600.3 317.7 1646 267.3C1691.7 217 1737.3 174 1783 166.8C1828.7 159.7 1874.3 188.3 1897.2 202.7L1920 217L1920 0L1897.2 0C1874.3 0 1828.7 0 1783 0C1737.3 0 1691.7 0 1646 0C1600.3 0 1554.7 0 1508.8 0C1463 0 1417 0 1371.2 0C1325.3 0 1279.7 0 1234 0C1188.3 0 1142.7 0 1097 0C1051.3 0 1005.7 0 960 0C914.3 0 868.7 0 823 0C777.3 0 731.7 0 686 0C640.3 0 594.7 0 548.8 0C503 0 457 0 411.2 0C365.3 0 319.7 0 274 0C228.3 0 182.7 0 137 0C91.3 0 45.7 0 22.8 0L0 0Z" fill="#191a1c"></path><path d="M0 617L22.8 613.3C45.7 609.7 91.3 602.3 137 578.8C182.7 555.3 228.3 515.7 274 535.5C319.7 555.3 365.3 634.7 411.2 623.8C457 613 503 512 548.8 492.2C594.7 472.3 640.3 533.7 686 548.2C731.7 562.7 777.3 530.3 823 530.3C868.7 530.3 914.3 562.7 960 593.2C1005.7 623.7 1051.3 652.3 1097 686.5C1142.7 720.7 1188.3 760.3 1234 733.3C1279.7 706.3 1325.3 612.7 1371.2 621.7C1417 630.7 1463 742.3 1508.8 742.3C1554.7 742.3 1600.3 630.7 1646 560.5C1691.7 490.3 1737.3 461.7 1783 456.3C1828.7 451 1874.3 469 1897.2 478L1920 487L1920 215L1897.2 200.7C1874.3 186.3 1828.7 157.7 1783 164.8C1737.3 172 1691.7 215 1646 265.3C1600.3 315.7 1554.7 373.3 1508.8 404C1463 434.7 1417 438.3 1371.2 472.5C1325.3 506.7 1279.7 571.3 1234 544.3C1188.3 517.3 1142.7 398.7 1097 373.5C1051.3 348.3 1005.7 416.7 960 389.7C914.3 362.7 868.7 240.3 823 175.5C777.3 110.7 731.7 103.3 686 133.8C640.3 164.3 594.7 232.7 548.8 245.3C503 258 457 215 411.2 229.5C365.3 244 319.7 316 274 357.3C228.3 398.7 182.7 409.3 137 355.3C91.3 301.3 45.7 182.7 22.8 123.3L0 64Z" fill="#1c1d20"></path><path d="M0 919L22.8 917.2C45.7 915.3 91.3 911.7 137 888.3C182.7 865 228.3 822 274 827.5C319.7 833 365.3 887 411.2 869C457 851 503 761 548.8 732.2C594.7 703.3 640.3 735.7 686 760.8C731.7 786 777.3 804 823 798.5C868.7 793 914.3 764 960 760.3C1005.7 756.7 1051.3 778.3 1097 801.8C1142.7 825.3 1188.3 850.7 1234 850.7C1279.7 850.7 1325.3 825.3 1371.2 828.8C1417 832.3 1463 864.7 1508.8 844.8C1554.7 825 1600.3 753 1646 708C1691.7 663 1737.3 645 1783 666.7C1828.7 688.3 1874.3 749.7 1897.2 780.3L1920 811L1920 485L1897.2 476C1874.3 467 1828.7 449 1783 454.3C1737.3 459.7 1691.7 488.3 1646 558.5C1600.3 628.7 1554.7 740.3 1508.8 740.3C1463 740.3 1417 628.7 1371.2 619.7C1325.3 610.7 1279.7 704.3 1234 731.3C1188.3 758.3 1142.7 718.7 1097 684.5C1051.3 650.3 1005.7 621.7 960 591.2C914.3 560.7 868.7 528.3 823 528.3C777.3 528.3 731.7 560.7 686 546.2C640.3 531.7 594.7 470.3 548.8 490.2C503 510 457 611 411.2 621.8C365.3 632.7 319.7 553.3 274 533.5C228.3 513.7 182.7 553.3 137 576.8C91.3 600.3 45.7 607.7 22.8 611.3L0 615Z" fill="#202124"></path><path d="M0 1038L22.8 1041.5C45.7 1045 91.3 1052 137 1026.8C182.7 1001.7 228.3 944.3 274 935.3C319.7 926.3 365.3 965.7 411.2 963.8C457 962 503 919 548.8 926.3C594.7 933.7 640.3 991.3 686 993.2C731.7 995 777.3 941 823 914C868.7 887 914.3 887 960 899.5C1005.7 912 1051.3 937 1097 938.7C1142.7 940.3 1188.3 918.7 1234 927.7C1279.7 936.7 1325.3 976.3 1371.2 985.3C1417 994.3 1463 972.7 1508.8 949.3C1554.7 926 1600.3 901 1646 884.8C1691.7 868.7 1737.3 861.3 1783 875.7C1828.7 890 1874.3 926 1897.2 944L1920 962L1920 809L1897.2 778.3C1874.3 747.7 1828.7 686.3 1783 664.7C1737.3 643 1691.7 661 1646 706C1600.3 751 1554.7 823 1508.8 842.8C1463 862.7 1417 830.3 1371.2 826.8C1325.3 823.3 1279.7 848.7 1234 848.7C1188.3 848.7 1142.7 823.3 1097 799.8C1051.3 776.3 1005.7 754.7 960 758.3C914.3 762 868.7 791 823 796.5C777.3 802 731.7 784 686 758.8C640.3 733.7 594.7 701.3 548.8 730.2C503 759 457 849 411.2 867C365.3 885 319.7 831 274 825.5C228.3 820 182.7 863 137 886.3C91.3 909.7 45.7 913.3 22.8 915.2L0 917Z" fill="#313236"></path><path d="M0 1081L22.8 1081C45.7 1081 91.3 1081 137 1081C182.7 1081 228.3 1081 274 1081C319.7 1081 365.3 1081 411.2 1081C457 1081 503 1081 548.8 1081C594.7 1081 640.3 1081 686 1081C731.7 1081 777.3 1081 823 1081C868.7 1081 914.3 1081 960 1081C1005.7 1081 1051.3 1081 1097 1081C1142.7 1081 1188.3 1081 1234 1081C1279.7 1081 1325.3 1081 1371.2 1081C1417 1081 1463 1081 1508.8 1081C1554.7 1081 1600.3 1081 1646 1081C1691.7 1081 1737.3 1081 1783 1081C1828.7 1081 1874.3 1081 1897.2 1081L1920 1081L1920 960L1897.2 942C1874.3 924 1828.7 888 1783 873.7C1737.3 859.3 1691.7 866.7 1646 882.8C1600.3 899 1554.7 924 1508.8 947.3C1463 970.7 1417 992.3 1371.2 983.3C1325.3 974.3 1279.7 934.7 1234 925.7C1188.3 916.7 1142.7 938.3 1097 936.7C1051.3 935 1005.7 910 960 897.5C914.3 885 868.7 885 823 912C777.3 939 731.7 993 686 991.2C640.3 989.3 594.7 931.7 548.8 924.3C503 917 457 960 411.2 961.8C365.3 963.7 319.7 924.3 274 933.3C228.3 942.3 182.7 999.7 137 1024.8C91.3 1050 45.7 1043 22.8 1039.5L0 1036Z" fill="#424448"></path></svg>